<svg version="1.1"
    xmlns="http://www.w3.org/2000/svg"
    style="cursor: pointer, color: #0d0ac0"
    viewBox="0 0 120 120"
    fill="none" stroke="#010111" stroke-width="3.5" stroke-linecap="round" stroke-linejoin="round"
    transform="rotate(10, 0, 0) skewX(5) scale(1.1, 1) skewY(-5)"
>
    <path
        fill="blue"
        stroke="blue"
        stroke-width="1"
        d="M 10 60
        C 10 60, 30 63.3, 24.65 95.35 C 24.65 95.35, 50 88, 60 110
        C 60 110, 77 88, 95.35 95.35 C 95.35 95.35, 85 65, 110 60
        C 110 60, 80 65, 50 67 L 50 67 35 67 C 35 67, 12 65, 12 60"/>
    <line x1="60" y1="10" x2="60" y2="110"></line>
    <line x1="10" y1="60" x2="110" y2="60"></line>
    <line x1="24.65" y1="24.65" x2="95.35" y2="95.35"></line>
    <line x1="95.35" y1="24.65" x2="24.65" y2="95.35"></line>
    <path d="M 24.65 24.65 C 24.65 24.65, 40 35, 60 10 C 60 10, 77 30, 95.35 24.65"/>
    <path d="M 24.65 95.35 C 24.65 95.35, 50 88, 60 110 C 60 110, 77 88, 95.35 95.35"/>
    <path d="M 24.65 24.65 C 24.65 24.65, 30 42, 10 60 C 10 60, 30 63.3, 24.65 95.35"/>
    <path d="M 94.35 24.65 C 94.35 24.65, 88 42, 110 60 C 110 60, 88 63.3, 95.35 95.35"/>

    <path d="M 38.79 38.79 C 38.79 38.79 48.00 45.00 60.00 30.00 C 60.00 30.00 70.20 42.00 81.21 38.79"/>
    <path d="M 38.79 81.21 C 38.79 81.21 54.00 76.80 60.00 90.00 C 60.00 90.00 70.20 76.80 81.21 81.21"/>
    <path d="M 38.79 38.79 C 38.79 38.79 42.00 49.20 30.00 60.00 C 30.00 60.00 42.00 61.98 38.79 81.21"/>
    <path d="M 80.61 38.79 C 80.61 38.79 76.80 49.20 90.00 60.00 C 90.00 60.00 76.80 61.98 81.21 81.21"
        stroke="#010210"/>
</svg>